<svg width="209" height="209" viewBox="0 0 209 209" fill="none" xmlns="http://www.w3.org/2000/svg">
<path d="M0.582031 104.135C0.582031 161.647 47.2047 208.269 104.717 208.269C162.229 208.269 208.851 161.647 208.851 104.135C208.851 46.6227 162.229 0 104.717 0C47.2047 0 0.582031 46.6227 0.582031 104.135Z" fill="#FBBC04"/>
<path d="M104.717 59.8774C119.035 59.8774 120.988 59.8774 126.845 59.8774C132.052 59.8774 134.655 61.1791 136.608 61.83C139.211 63.1316 141.164 63.7825 143.116 65.735C145.069 67.6875 146.371 69.6401 147.021 72.2434C147.672 74.196 148.323 76.7993 148.974 82.0061C148.974 87.8636 148.974 89.1653 148.974 104.135C148.974 119.104 148.974 120.406 148.974 126.263C148.974 131.47 147.672 134.073 147.021 136.026C145.72 138.629 145.069 140.582 143.116 142.534C141.164 144.487 139.211 145.789 136.608 146.439C134.655 147.09 132.052 147.741 126.845 148.392C120.988 148.392 119.686 148.392 104.717 148.392C89.7474 148.392 88.4457 148.392 82.5881 148.392C77.3814 148.392 74.778 147.09 72.8255 146.439C70.2221 145.138 68.2696 144.487 66.3171 142.534C64.3645 140.582 63.0629 138.629 62.412 136.026C61.7612 134.073 61.1103 131.47 60.4595 126.263C60.4595 120.406 60.4595 119.104 60.4595 104.135C60.4595 89.1653 60.4595 87.8636 60.4595 82.0061C60.4595 76.7993 61.7612 74.196 62.412 72.2434C63.7137 69.6401 64.3645 67.6875 66.3171 65.735C68.2696 63.7825 70.2221 62.4808 72.8255 61.83C74.778 61.1791 77.3814 60.5283 82.5881 59.8774C88.4457 59.8774 90.3982 59.8774 104.717 59.8774ZM104.717 50.1148C89.7474 50.1148 88.4457 50.1148 82.5881 50.1148C76.7305 50.1148 72.8255 51.4165 69.5713 52.7182C66.3171 54.0199 63.0629 55.9724 59.8087 59.2266C56.5544 62.4808 55.2528 65.0842 53.3002 68.9892C51.9986 72.2434 51.3477 76.1485 50.6969 82.0061C50.6969 87.8636 50.6969 89.8162 50.6969 104.135C50.6969 119.104 50.6969 120.406 50.6969 126.263C50.6969 132.121 51.9986 136.026 53.3002 139.28C54.6019 142.534 56.5544 145.789 59.8087 149.043C63.0629 152.297 65.6662 153.599 69.5713 155.551C72.8255 156.853 76.7305 157.504 82.5881 158.155C88.4457 158.155 90.3982 158.155 104.717 158.155C119.035 158.155 120.988 158.155 126.845 158.155C132.703 158.155 136.608 156.853 139.862 155.551C143.116 154.249 146.371 152.297 149.625 149.043C152.879 145.789 154.181 143.185 156.133 139.28C157.435 136.026 158.086 132.121 158.737 126.263C158.737 120.406 158.737 118.453 158.737 104.135C158.737 89.8162 158.737 87.8636 158.737 82.0061C158.737 76.1485 157.435 72.2434 156.133 68.9892C154.832 65.735 152.879 62.4808 149.625 59.2266C146.371 55.9724 143.767 54.6707 139.862 52.7182C136.608 51.4165 132.703 50.7656 126.845 50.1148C120.988 50.1148 119.686 50.1148 104.717 50.1148Z" fill="white"/>
<path d="M104.717 76.1485C89.0965 76.1485 76.7305 88.5145 76.7305 104.135C76.7305 119.755 89.0965 132.121 104.717 132.121C120.337 132.121 132.703 119.755 132.703 104.135C132.703 88.5145 120.337 76.1485 104.717 76.1485ZM104.717 122.358C94.9541 122.358 86.4932 114.548 86.4932 104.135C86.4932 94.372 94.3033 85.9111 104.717 85.9111C114.479 85.9111 122.94 93.7212 122.94 104.135C122.94 113.897 114.479 122.358 104.717 122.358Z" fill="white"/>
<path d="M133.354 82.0061C136.948 82.0061 139.862 79.0921 139.862 75.4976C139.862 71.9031 136.948 68.9892 133.354 68.9892C129.759 68.9892 126.845 71.9031 126.845 75.4976C126.845 79.0921 129.759 82.0061 133.354 82.0061Z" fill="white"/>
</svg>
